<svg xmlns="http://www.w3.org/2000/svg" viewBox="0 0 64 64" fill="#ffffff" height='22px' width='22px' id="tutorial"><path d="M58,2.02539H26a4.00427,4.00427,0,0,0-4,4V16.97021H9a3.00328,3.00328,0,0,0-3,3v32.0044H3a.99983.99983,0,0,0-.99512,1.09863,10.60957,10.60957,0,0,0,6.623,8.82959c.38515.21766,45.95563-.006,46.37185.072,3.42433-.68444,6.973-5.55917,6.99413-8.90265a1.00579,1.00579,0,0,0-.9949-1.09751l-2.999,0V34.02539a4.00427,4.00427,0,0,0,4-4v-24A4.00427,4.00427,0,0,0,58,2.02539Zm.21191,55.333a8.63236,8.63236,0,0,1-3.41113,2.61621H9.19824c-1.98679-.59634-4.74894-3.72787-5.02246-6H25.16992a3.00621,3.00621,0,0,0,2.8291,2H36a3.0062,3.0062,0,0,0,2.8291-2H59.82422A8.55953,8.55953,0,0,1,58.21191,57.3584ZM56,51.97461H38a.99974.99974,0,0,0-1,1,1.001,1.001,0,0,1-1,1H27.999a1.001,1.001,0,0,1-1-1,.99973.99973,0,0,0-1-1H8V19.97021a1.001,1.001,0,0,1,1-1H22V30.02539a4.00427,4.00427,0,0,0,4,4h1.51953l3.69922,4.62451a1.00049,1.00049,0,0,0,1.5625,0l3.69922-4.62451H56Zm4-21.94922a2.00229,2.00229,0,0,1-2,2H36a1.00172,1.00172,0,0,0-.78125.37549L32,36.4248l-3.21875-4.02392A1.00172,1.00172,0,0,0,28,32.02539H26a2.00229,2.00229,0,0,1-2-2v-24a2.00229,2.00229,0,0,1,2-2H58a2.00229,2.00229,0,0,1,2,2Z"></path><path d="M55,5.99219H44a2.97706,2.97706,0,0,0-2,.78027,2.97706,2.97706,0,0,0-2-.78027H29a3.00328,3.00328,0,0,0-3,3v16a3.00328,3.00328,0,0,0,3,3h9.15137a3.12447,3.12447,0,0,1,2.91211,2.01758,1.00034,1.00034,0,0,0,1.873-.00049,3.12273,3.12273,0,0,1,2.91114-2.01709H55a3.00328,3.00328,0,0,0,3-3v-16A3.00328,3.00328,0,0,0,55,5.99219Zm-16.84863,20H29a1.001,1.001,0,0,1-1-1v-16a1.001,1.001,0,0,1,1-1H40a1.001,1.001,0,0,1,1,1V26.86572A5.10361,5.10361,0,0,0,38.15137,25.99219Zm17.84863-1a1.001,1.001,0,0,1-1,1H45.84766A5.10389,5.10389,0,0,0,43,26.86523V8.99219a1.001,1.001,0,0,1,1-1H55a1.001,1.001,0,0,1,1,1Z"></path><path d="M52 10.99219H47a1.00018 1.00018 0 00.00006 2l4.99994 0A1.00019 1.00019 0 0052 10.99219zM52 15.99219H47a1.00018 1.00018 0 00.00006 2l4.99994 0A1.00019 1.00019 0 0052 15.99219zM52 20.99219H47a1.00018 1.00018 0 00.00006 2l4.99994 0A1.00019 1.00019 0 0052 20.99219zM37 10.99219H32a1.00018 1.00018 0 00.00006 2l4.99994 0A1.00019 1.00019 0 0037 10.99219zM37 15.99219H32a1.00018 1.00018 0 00.00006 2l4.99994 0A1.00019 1.00019 0 0037 15.99219zM37 20.99219H32a1.00018 1.00018 0 00.00006 2l4.99994 0A1.00019 1.00019 0 0037 20.99219z"></path></svg>