<?xml version="1.0" encoding="utf-8"?>
<svg viewBox="3.005 -10.818 482.14 482.14" fill="#000000" width="64px" xmlns="http://www.w3.org/2000/svg">
  <g id="SVGRepo_iconCarrier" transform="matrix(0.9999999999999999, 0, 0, 0.9999999999999999, 0, 0)">
    <g>
      <path d="M202.709,297.681c-4.39,0-7.227,0.379-8.905,0.772v56.896c1.679,0.394,4.39,0.394,6.841,0.394 c17.809,0.126,29.424-9.677,29.424-30.449C230.195,307.231,219.611,297.681,202.709,297.681z"/>
      <path d="M 437.334 121.449 L 437.334 430.824 C 437.334 459.128 414.306 482.139 386.034 482.139 L 121.811 482.139 C 93.521 482.139 70.496 459.129 70.496 430.824 L 70.496 407.829 L 65.484 407.829 C 54.065 407.829 44.806 398.579 44.806 387.152 L 44.806 261.748 C 44.806 250.32 54.066 241.069 65.484 241.069 L 70.496 241.069 L 70.496 51.315 C 70.496 23.041 93.521 0 121.811 0 L 315.458 0 Z M 405.891 430.823 L 405.15 133.898 L 339.288 134.087 C 319.635 134.087 303.701 118.138 303.701 98.5 L 303.701 31.267 L 121.811 31.457 C 110.858 31.457 101.937 40.377 101.937 51.315 L 101.937 241.069 L 348.247 241.069 C 359.667 241.069 368.926 250.32 368.926 261.748 L 368.926 387.152 C 368.926 398.579 359.667 407.829 348.247 407.829 L 101.937 407.829 L 101.937 430.824 C 101.937 441.793 110.857 450.713 121.811 450.713 L 386.034 450.713 C 396.987 450.713 405.891 441.793 405.891 430.823 Z M 196.684 335.474 C 200.111 337.058 210.485 330.087 213.587 327.023 C 215.69 324.945 217.685 321.95 216.404 320.449 C 215.416 319.292 210.666 318.105 205.66 317.52 C 205.881 319.521 205.871 321.451 205.548 322.985 C 204.728 326.88 201.611 330.896 198.506 332.845 C 197.577 333.427 196.473 333.87 195.292 334.191 C 195.74 334.806 196.209 335.254 196.684 335.474 Z"/>
      <text style="fill: rgb(255, 255, 255); font-family: Arial, sans-serif; font-size: 100px; font-weight: 800; letter-spacing: 7.3px; stroke-dashoffset: 18px; stroke-miterlimit: 4.6; white-space: pre; transform-origin: 7.76041px 325px;" transform="matrix(0.872381, 0, 0, 1.006692, -131.61749, 10.146074)" x="264.659" y="346.815">XLS</text>
    </g>
  </g>
</svg>