<svg width="14" height="43" viewBox="0 0 14 43" fill="none" xmlns="http://www.w3.org/2000/svg">
<circle cx="6.68889" cy="21.0224" r="6.68889" fill="#424242"/>
<path d="M5.90302 24V19.6364H7.4712V24H5.90302ZM6.68711 19.1818C6.47499 19.1818 6.29317 19.1117 6.14166 18.9716C5.99014 18.8314 5.91439 18.6629 5.91439 18.4659C5.91439 18.2689 5.99014 18.1004 6.14166 17.9602C6.29317 17.8201 6.47499 17.75 6.68711 17.75C6.90113 17.75 7.08295 17.8201 7.23257 17.9602C7.38408 18.1004 7.45984 18.2689 7.45984 18.4659C7.45984 18.6629 7.38408 18.8314 7.23257 18.9716C7.08295 19.1117 6.90113 19.1818 6.68711 19.1818Z" fill="white"/>
</svg>
